# xmcd
#
# Track frame offsets: 
#        150
#        17647
#        40221
#        51081
#        67750
#        92005
#        114449
#        122969
#        144258
#        166503
#        184735
#        226282
#        245006
#        260861
#        293990
#
# Disc length: 4632 seconds
#
# Revision: 0
# Processed by: cddbd v1.5.2PL0 Copyright (c) Steve Scherf et al.
# Submitted via: ExactAudioCopy v0.95b4
#
DISCID=cc12160f
DTITLE=ughan and Double Trouble - Stevie Ray Vaughan And Double Troubl
DTITLE=e [CD1]
DYEAR=2002
DGENRE=Blues
TTITLE0=Shake For Me (Live)
TTITLE1=Rude Mood/Hide Away (Live)
TTITLE2=Lovestruck Baby
TTITLE3=Pride and Joy
TTITLE4=Texas Flood
TTITLE5=Lenny
TTITLE6=Scuttle Buttin'
TTITLE7=Couldn't Stand the Weather
TTITLE8=The Things (That) I Used to Do
TTITLE9=Cold Shot
TTITLE10=Tin Pan Alley
TTITLE11=Give Me Back My Wig
TTITLE12=Empty Arms
TTITLE13=The Sky Is Crying (Live)
TTITLE14=Voodoo Child (Slight Return) (Live)
EXTD=
EXTT0=
EXTT1=
EXTT2=
EXTT3=
EXTT4=
EXTT5=
EXTT6=
EXTT7=
EXTT8=
EXTT9=
EXTT10=
EXTT11=
EXTT12=
EXTT13=
EXTT14=
PLAYORDER=
